<?xml version="1.0" encoding="UTF-8" standalone="no"?>
<!-- Created with Inkscape (http://www.inkscape.org/) -->

<svg
   xmlns:dc="http://purl.org/dc/elements/1.1/"
   xmlns:cc="http://creativecommons.org/ns#"
   xmlns:rdf="http://www.w3.org/1999/02/22-rdf-syntax-ns#"
   xmlns:svg="http://www.w3.org/2000/svg"
   xmlns="http://www.w3.org/2000/svg"
   xmlns:sodipodi="http://sodipodi.sourceforge.net/DTD/sodipodi-0.dtd"
   xmlns:inkscape="http://www.inkscape.org/namespaces/inkscape"
   width="3543.3071"
   height="1222.1608"
   viewBox="0 0 999.99998 344.92091"
   version="1.1"
   id="svg8"
   inkscape:version="0.48.5 r10040"
   sodipodi:docname="Comedy_Central_2018.svg">
  <defs
     id="defs2" />
  <sodipodi:namedview
     id="base"
     pagecolor="#ffffff"
     bordercolor="#666666"
     borderopacity="1.0"
     inkscape:pageopacity="0.0"
     inkscape:pageshadow="2"
     inkscape:zoom="0.125"
     inkscape:cx="2604.2916"
     inkscape:cy="-347.17611"
     inkscape:document-units="mm"
     inkscape:current-layer="layer1"
     showgrid="false"
     fit-margin-top="0"
     fit-margin-left="0"
     fit-margin-right="0"
     fit-margin-bottom="0"
     inkscape:window-width="1029"
     inkscape:window-height="1033"
     inkscape:window-x="889"
     inkscape:window-y="-15"
     inkscape:window-maximized="0"
     units="mm" />
  <metadata
     id="metadata5">
    <rdf:RDF>
      <cc:Work
         rdf:about="">
        <dc:format>image/svg+xml</dc:format>
        <dc:type
           rdf:resource="http://purl.org/dc/dcmitype/StillImage" />
        <dc:title />
      </cc:Work>
    </rdf:RDF>
  </metadata>
  <g
     inkscape:label="Layer 1"
     inkscape:groupmode="layer"
     id="layer1"
     transform="translate(214.73791,128.54269)">
    <path
       style="fill:#000000;fill-rule:evenodd;stroke:none"
       d="M 650.23166,58.178313 611.90963,190.97169 h 27.62593 l 4.01188,-16.92811 h 35.65137 l 3.56819,16.92811 h 28.06961 L 672.06921,58.178313 z m 11.14148,36.095053 c 0,1.784244 0.37366,4.456954 1.11346,8.025464 0.74855,3.55985 1.41048,6.83223 2.01105,9.80023 l 8.91284,38.76569 h -24.5099 l 9.35653,-38.76569 c 0.59188,-2.968 1.26102,-6.24038 2.00084,-9.80023 0.74851,-3.56851 1.11518,-6.24122 1.11518,-8.025464 z"
       id="path0"
       inkscape:connector-curvature="0" />
    <path
       style="fill:#000000;fill-rule:evenodd;stroke:none"
       d="M 522.33922,57.734623 V 190.97169 h 26.73854 v -42.33558 h 11.58345 l 17.8257,42.33558 h 26.29485 L 586.0585,143.29315 c 5.64874,-3.86445 10.25376,-9.13866 13.8223,-15.82314 3.55985,-6.68447 5.34465,-14.33623 5.34465,-22.94423 v -3.12451 c 0,-12.47248 -3.78661,-22.873343 -11.36759,-31.19412 -7.57227,-8.320801 -17.30244,-12.472527 -29.18304,-12.472527 z m 26.73854,24.953572 h 12.92473 c 4.75222,0 8.76493,1.55896 12.02884,4.674878 3.26391,3.124653 4.89927,7.945353 4.89927,14.481887 v 0.89756 c 0,7.42433 -1.63536,12.77682 -4.89927,16.04075 -3.26391,3.26391 -7.27662,4.89925 -12.02884,4.89925 h -12.92473 z"
       id="path1"
       inkscape:connector-curvature="0" />
    <path
       style="fill:#000000;fill-rule:evenodd;stroke:none"
       d="M 593.64028,-102.69318 V 30.543899 h 42.77926 c 6.83245,0 13.14244,-1.331336 18.93915,-4.003394 5.79669,-2.68077 10.61913,-6.387503 14.4836,-11.139768 3.86445,-4.760952 6.91075,-10.7754666 9.13893,-18.051797 2.22815,-7.2763305 3.34209,-15.075644 3.34209,-23.396421 v -24.066216 c 0,-7.4243 -1.11394,-14.403473 -3.34209,-20.93999 -2.22818,-6.536516 -5.27448,-12.186086 -9.13893,-16.938315 -3.86447,-4.752265 -8.68691,-8.389607 -14.4836,-10.913685 -5.79671,-2.524113 -12.1067,-3.787493 -18.93915,-3.787493 z m 26.73854,24.953587 h 12.92471 c 3.85578,0 7.12816,0.592533 9.80022,1.784946 2.67204,1.183702 4.89997,2.968528 6.68422,5.344643 2.0802,2.672052 3.56947,5.796688 4.45726,9.356539 0.88777,3.568537 1.33957,7.581029 1.33957,12.037355 v 21.383685 c 0,5.648742 -0.4518,10.618931 -1.33957,14.927265 -0.88779,4.3083574 -2.37706,7.9472103 -4.45726,10.9238943 -1.78425,2.37614453 -4.01218,4.3086955 -6.68422,5.7883142 -2.67206,1.488354 -5.94444,2.2269448 -9.80022,2.2269448 h -12.92471 z"
       id="path2"
       inkscape:connector-curvature="0" />
    <path
       style="fill:#000000;fill-rule:evenodd;stroke:none"
       d="m 291.94143,-104.47643 c -6.23189,0 -11.65403,0.81694 -16.25833,2.44453 -4.60427,1.63632 -8.84268,3.796271 -12.70714,6.468312 -5.64003,5.048204 -10.09581,11.731864 -13.36841,20.052633 -3.26392,8.320795 -4.90096,18.712949 -4.90096,31.19409 v 16.04075 c 0,12.777128 1.63704,23.4751593 4.90096,32.0831635 3.2726,8.6167395 7.72838,15.1526215 13.36841,19.6089475 3.86446,2.97666 8.10287,5.273994 12.70714,6.910317 4.6043,1.636275 10.02644,2.44622 16.25833,2.44622 5.64875,0 10.77517,-0.809945 15.37946,-2.44622 4.60426,-1.636323 8.83587,-3.933657 12.70034,-6.910317 5.94464,-4.456326 10.40043,-10.992208 13.36841,-19.6089475 2.96799,-8.6080042 4.45557,-19.1583085 4.45557,-31.6394735 v -16.48444 c 0,-12.481141 -1.48758,-22.873295 -4.45557,-31.19409 -2.96798,-8.320769 -7.42377,-15.004429 -13.36841,-20.052633 -3.86447,-2.672041 -8.09608,-4.831992 -12.70034,-6.468312 -4.60429,-1.62759 -9.73071,-2.44453 -15.37946,-2.44453 z m 0,24.953585 c 2.68076,0 5.05792,0.443082 7.13809,1.339559 2.08022,0.8878 3.85631,2.227821 5.34466,4.003385 2.08017,2.376116 3.71556,6.023658 4.89925,10.923883 1.19242,4.90021 1.78495,11.505732 1.78495,19.826533 v 15.15337 c 0,8.320801 -0.59253,14.85842 -1.78495,19.6106366 -1.18369,4.752265 -2.81908,8.3199808 -4.89925,10.6961012 -1.48835,2.0802064 -3.34257,3.6390943 -5.57074,4.6748539 -2.22816,1.0444467 -4.53589,1.5571747 -6.91201,1.5571747 -2.96798,0 -5.63915,-0.512728 -8.01527,-1.5571747 -2.37611,-1.0357596 -4.30848,-2.5946475 -5.79683,-4.6748539 -2.08018,-2.3761204 -3.70855,-5.9438362 -4.90096,-10.6961012 -1.19242,-4.7522166 -1.78325,-11.2898356 -1.78325,-19.6106366 v -15.15337 c 0,-8.320801 0.59083,-14.926323 1.78325,-19.826533 1.19241,-4.900225 2.82078,-8.547767 4.90096,-10.923883 1.48835,-1.775564 3.42072,-3.115585 5.79683,-4.003385 2.37612,-0.896477 5.04729,-1.339559 8.01527,-1.339559 z"
       id="path3"
       inkscape:connector-curvature="0" />
    <path
       d="M 719.74893,57.734985 V 190.97198 h 65.51313 V 166.46224 H 746.48687 V 57.734985 z"
       id="path6"
       inkscape:connector-curvature="0"
       style="fill:#000000;fill-rule:evenodd;stroke:none" />
    <path
       d="M 456.82606,82.688629 V 190.97198 h 26.29402 V 82.688629 h 24.95363 V 57.734985 h -76.20133 v 24.953644 z"
       id="path7"
       inkscape:connector-curvature="0"
       style="fill:#000000;fill-rule:evenodd;stroke:none" />
    <path
       d="M 334.72984,57.734985 V 190.97198 H 358.787 v -77.08909 l 36.10317,77.08909 h 23.61325 V 57.734985 H 393.99368 V 135.72057 L 357.89923,57.734985 z"
       id="path8"
       inkscape:connector-curvature="0"
       style="fill:#000000;fill-rule:evenodd;stroke:none" />
    <path
       d="M 247.37898,57.734985 V 190.97198 h 67.74132 v -24.50974 h -41.00339 v -30.74167 h 34.76278 V 110.75822 H 274.11691 V 82.688629 H 315.1203 V 57.734985 z"
       id="path9"
       inkscape:connector-curvature="0"
       style="fill:#000000;fill-rule:evenodd;stroke:none" />
    <path
       d="m 177.86214,86.701073 c 1.48835,-2.080182 3.34224,-3.490208 5.57043,-4.238741 2.22814,-0.739821 4.68262,-1.114087 7.35467,-1.114087 3.56853,0 7.05874,0.896501 10.47058,2.672058 3.4206,1.784268 6.16226,5.352805 8.24248,10.696898 l 23.62196,-9.80042 C 229.25779,74.811736 223.53944,67.38746 215.96716,62.635195 208.3862,57.882954 199.9958,55.50681 190.78724,55.50681 c -5.64875,0 -10.91452,0.887814 -15.82344,2.672058 -4.9002,1.784268 -9.13023,4.160389 -12.69877,7.128386 -5.64003,4.752241 -10.02672,11.288774 -13.14266,19.609527 -3.12464,8.320801 -4.68263,18.713099 -4.68263,31.194259 v 16.4849 c 0,12.77711 1.55799,23.32603 4.68263,31.63812 3.11594,8.32081 7.50263,14.85731 13.14266,19.60958 3.56854,2.97666 7.79857,5.20481 12.69877,6.68448 4.90892,1.4883 10.17469,2.22815 15.82344,2.22815 9.80039,0 18.34748,-2.29779 25.62382,-6.90209 7.27634,-4.60427 12.84673,-11.51505 16.7112,-20.72364 L 209.5003,154.43367 c -2.08022,5.34409 -4.75227,8.91263 -8.01615,10.69687 -3.27263,1.78429 -6.83245,2.67209 -10.69691,2.67209 -2.67205,0 -5.12653,-0.3743 -7.35467,-1.11409 -2.22819,-0.73982 -4.08208,-2.14983 -5.57043,-4.23003 -2.08018,-2.08018 -3.70778,-5.57039 -4.90019,-10.47931 -1.19242,-4.90021 -1.78429,-11.50636 -1.78429,-19.82717 v -14.70934 c 0,-8.91263 0.59187,-15.74507 1.78429,-20.49729 1.19241,-4.752265 2.82001,-8.164145 4.90019,-10.244327 z"
       id="path10"
       inkscape:connector-curvature="0"
       style="fill:#000000;fill-rule:evenodd;stroke:none" />
    <path
       d="m -24.003938,67.091522 c -3.864451,7.128385 -9.434841,12.846745 -16.711196,17.155103 -7.285017,4.308333 -15.231576,6.458156 -23.848267,6.458156 -12.768393,0 -23.691612,-4.525943 -32.752235,-13.586542 -9.060594,-9.060598 -13.586544,-19.983817 -13.586544,-32.75221 0,-12.777128 4.52595,-23.76994 13.586544,-32.978532 9.060623,-9.2085672 19.983842,-13.8128149 32.752235,-13.8128149 8.616691,0 16.56325,2.29779241 23.848267,6.90204 7.276355,4.6042959 12.846745,10.3226559 16.711196,17.1551029 L 12.090511,1.1344831 C 4.6575243,-12.234473 -5.8827412,-23.000988 -19.547587,-31.17382 c -13.67363,-8.164121 -28.670174,-12.254868 -45.015814,-12.254868 -11.880651,0 -23.169377,2.306479 -33.866298,6.910775 -10.696901,4.604248 -19.975111,10.844867 -27.852001,18.713049 -7.86818,7.8768944 -14.10878,17.1551031 -18.71307,27.852025 -4.6043,10.696897 -6.91078,22.133616 -6.91078,34.318868 0,12.17654 2.30648,23.613259 6.91078,34.310181 4.60429,10.696898 10.84489,19.975106 18.71307,27.852 7.87689,7.87689 17.1551,14.10875 27.852001,18.71307 10.696921,4.6043 21.985647,6.91075 33.866298,6.91075 16.049702,0 30.976653,-4.16038 44.789468,-12.48114 13.8128637,-8.31209 24.4314573,-19.00901 31.864444,-32.082026 z"
       id="path11"
       inkscape:connector-curvature="0"
       style="fill:#f8ba0f;fill-opacity:0.94117647;fill-rule:evenodd;stroke:none" />
    <path
       d="m 405.13446,30.544454 h 21.83773 l 19.60954,-72.632806 8.46876,72.632806 h 24.50974 L 464.40702,-102.69253 h -24.95367 l -23.17808,83.773579 -23.16939,-83.773579 H 367.69963 L 352.10252,30.544454 h 24.96236 l 8.01614,-72.632806 z"
       id="path14"
       inkscape:connector-curvature="0"
       style="fill:#000000;fill-rule:evenodd;stroke:none" />
    <path
       d="M 500.50147,-102.69253 V 30.544454 h 70.41334 V 6.0347172 H 526.79549 V -24.706952 h 38.76649 v -25.406214 h -38.76649 v -27.625725 h 44.11932 v -24.953639 z"
       id="path15"
       inkscape:connector-curvature="0"
       style="fill:#000000;fill-rule:evenodd;stroke:none" />
    <path
       d="m 719.74893,-33.619581 v 64.164035 h 26.73794 v -64.164035 l 37.43481,-69.072949 H 754.95561 L 732.674,-60.810088 711.2889,-102.69253 h -28.96609 z"
       id="path16"
       inkscape:connector-curvature="0"
       style="fill:#000000;fill-rule:evenodd;stroke:none" />
    <path
       d="m 177.86214,-74.179044 c 1.48835,-1.775564 3.34224,-3.115949 5.57043,-4.003747 2.22814,-0.896483 4.68262,-1.340351 7.35467,-1.340351 3.56853,0 7.05874,0.966092 10.47058,2.898341 3.4206,1.932216 6.16226,5.718357 8.24248,11.358386 l 23.62196,-10.688193 c -3.86447,-10.105079 -9.58282,-17.381393 -17.1551,-21.837725 -7.58096,-4.456297 -15.97136,-6.684477 -25.17992,-6.684477 -5.64875,0 -10.91452,0.81816 -15.82344,2.44575 -4.9002,1.63632 -9.13023,3.794827 -12.69877,6.466876 -5.64003,5.048199 -10.02672,11.732679 -13.14266,20.053442 -3.12464,8.320796 -4.68263,18.713098 -4.68263,31.194263 v 16.040991 c 0,12.777128 1.55799,23.4740014 4.68263,32.0820298 3.11594,8.6167152 7.50263,15.1532482 13.14266,19.6095752 3.56854,2.97666 7.79857,5.274452 12.69877,6.910775 4.90892,1.636275 10.17469,2.445738 15.82344,2.445738 9.80039,0 18.34748,-2.297769 25.62382,-6.902089 7.27634,-4.604247 12.84673,-11.663016 16.7112,-21.1675217 L 209.5003,-5.549995 c -2.08022,5.04820321 -4.75227,8.6167395 -8.01615,10.6969217 -3.27263,2.0802063 -6.83245,3.1159418 -10.69691,3.1159418 -2.67205,0 -5.12653,-0.5135001 -7.35467,-1.5579468 -2.22819,-1.0357838 -4.08208,-2.5937306 -5.57043,-4.673961 -2.08018,-2.37609634 -3.70778,-5.9446326 -4.90019,-10.6968976 -1.19242,-4.7522411 -1.78429,-11.2887501 -1.78429,-19.6095511 v -15.1532 c 0,-8.320801 0.59187,-14.926952 1.78429,-19.827162 1.19241,-4.900222 2.82001,-8.547079 4.90019,-10.923194 z"
       id="path17"
       inkscape:connector-curvature="0"
       style="fill:#000000;fill-rule:evenodd;stroke:none" />
    <path
       id="path2997"
       style="fill:#f8ba0f;fill-opacity:0.94117647;fill-rule:evenodd;stroke:none"
       d="m 107.90139,43.469527 c 0,23.76994 -4.53466,46.199519 -13.595249,67.297423 -9.060596,21.08917 -21.315467,39.43669 -36.764644,55.0338 -15.449139,15.5971 -33.718329,27.92161 -54.8074988,36.98224 -21.0979052,9.0606 -43.5274602,13.59525 -67.2973992,13.59525 -32.082054,0 -61.422389,-8.17283 -88.012329,-24.50979 -26.58997,-16.33692 -47.30489,-37.73074 -62.16218,-64.17274 l 36.09445,-19.60953 c 10.99284,19.60953 26.73791,35.50257 47.23525,47.68783 20.50603,12.17656 42.787618,18.26916 66.844809,18.26916 17.825258,0 34.762751,-3.42057 50.803766,-10.25301 C 2.2814039,156.95771 16.172596,147.67955 27.905229,135.93818 39.646597,124.2055 49.003134,110.39268 55.98355,94.499615 62.963954,78.606569 66.454129,61.599435 66.454129,43.469527 l 0,0.896502 C 66.454129,26.236121 62.963954,9.2289872 55.98355,-6.6640586 49.003134,-22.557129 39.646597,-36.369944 27.905229,-48.102625 16.172596,-59.843994 2.2814039,-69.122161 -13.759635,-75.954608 -29.80065,-82.787056 -46.738143,-86.20762 -64.563401,-86.20762 c -24.057191,0 -46.338779,6.092613 -66.844809,18.269156 -20.49734,12.185266 -36.24241,28.078312 -47.23525,47.687839 l -36.09445,-19.609527 c 14.85729,-26.441996 35.57221,-47.83582 62.16218,-64.172758 26.58994,-16.33695 55.930275,-24.50978 88.012329,-24.50978 23.769939,0 46.199494,4.53466 67.2973992,13.59526 21.0891698,9.06063 39.3583598,21.385137 54.8074988,36.982247 15.449177,15.5971 27.704048,33.944618 36.764644,55.033788 9.060589,21.0979053 13.595249,43.527484 13.595249,67.297424 z"
       inkscape:connector-curvature="0"
       sodipodi:nodetypes="ccscsscccsscsccscsscccsscsccc" />
  </g>
</svg>
